<svg width="24" height="24" viewBox="0 0 24 24" fill="none" xmlns="http://www.w3.org/2000/svg">
<g id="material-symbols:robot-2-outline">
<path id="Vector" d="M4 21V16C4 15.45 4.196 14.979 4.588 14.587C4.98 14.195 5.45067 13.9993 6 14H18C18.55 14 19.021 14.196 19.413 14.588C19.805 14.98 20.0007 15.4507 20 16V21H4ZM9 13C7.61667 13 6.43733 12.5123 5.462 11.537C4.48667 10.5617 3.99933 9.38267 4 8C4 6.61667 4.48767 5.43733 5.463 4.462C6.43833 3.48667 7.61733 2.99933 9 3H15C16.3833 3 17.5627 3.48767 18.538 4.463C19.5133 5.43833 20.0007 6.61733 20 8C20 9.38333 19.5123 10.5627 18.537 11.538C17.5617 12.5133 16.3827 13.0007 15 13H9ZM6 19H18V16H6V19ZM9 11H15C15.8333 11 16.5417 10.7083 17.125 10.125C17.7083 9.54167 18 8.83333 18 8C18 7.16667 17.7083 6.45833 17.125 5.875C16.5417 5.29167 15.8333 5 15 5H9C8.16667 5 7.45833 5.29167 6.875 5.875C6.29167 6.45833 6 7.16667 6 8C6 8.83333 6.29167 9.54167 6.875 10.125C7.45833 10.7083 8.16667 11 9 11ZM9 9C9.28333 9 9.521 8.904 9.713 8.712C9.905 8.52 10.0007 8.28267 10 8C10 7.71667 9.904 7.479 9.712 7.287C9.52 7.095 9.28267 6.99933 9 7C8.71667 7 8.479 7.096 8.287 7.288C8.095 7.48 7.99933 7.71733 8 8C8 8.28333 8.096 8.521 8.288 8.713C8.48 8.905 8.71733 9.00067 9 9ZM15 9C15.2833 9 15.521 8.904 15.713 8.712C15.905 8.52 16.0007 8.28267 16 8C16 7.71667 15.904 7.479 15.712 7.287C15.52 7.095 15.2827 6.99933 15 7C14.7167 7 14.479 7.096 14.287 7.288C14.095 7.48 13.9993 7.71733 14 8C14 8.28333 14.096 8.521 14.288 8.713C14.48 8.905 14.7173 9.00067 15 9Z" fill="#1B1B1B"/>
</g>
</svg>
